<svg xmlns="http://www.w3.org/2000/svg" xmlns:xlink="http://www.w3.org/1999/xlink" width="125" height="135" viewBox="0 0 125 142">
    <defs>
        <path id="a" d="M62.5 60.807c-5.63 0-10.193 4.564-10.193 10.193 0 5.63 4.564 10.193 10.193 10.193 5.63 0 10.193-4.564 10.193-10.193 0-5.63-4.564-10.193-10.193-10.193z"/>
        <filter id="b" width="109.8%" height="109.8%" x="-4.9%" y="-4.9%" filterUnits="objectBoundingBox">
            <feGaussianBlur in="SourceAlpha" result="shadowBlurInner1" stdDeviation=".5"/>
            <feOffset dy="1" in="shadowBlurInner1" result="shadowOffsetInner1"/>
            <feComposite in="shadowOffsetInner1" in2="SourceAlpha" k2="-1" k3="1" operator="arithmetic" result="shadowInnerInner1"/>
            <feColorMatrix in="shadowInnerInner1" values="0 0 0 0 0 0 0 0 0 0 0 0 0 0 0 0 0 0 0.3 0"/>
        </filter>
        <path id="c" d="M53.579 58.681a3.398 3.398 0 1 0-6.796 0 3.398 3.398 0 0 0 6.796 0z"/>
        <filter id="d" width="144.1%" height="144.1%" x="-22.1%" y="-22.1%" filterUnits="objectBoundingBox">
            <feGaussianBlur in="SourceAlpha" result="shadowBlurInner1" stdDeviation="1"/>
            <feOffset dy="1" in="shadowBlurInner1" result="shadowOffsetInner1"/>
            <feComposite in="shadowOffsetInner1" in2="SourceAlpha" k2="-1" k3="1" operator="arithmetic" result="shadowInnerInner1"/>
            <feColorMatrix in="shadowInnerInner1" values="0 0 0 0 0 0 0 0 0 0 0 0 0 0 0 0 0 0 0.3 0"/>
        </filter>
    </defs>
    <g fill="none" fill-rule="evenodd">
        <path fill="#EF5322" d="M72.198 93.959a24.756 24.756 0 0 1-9.698 1.957 24.832 24.832 0 0 1-17.618-7.298A24.836 24.836 0 0 1 37.584 71a24.834 24.834 0 0 1 7.298-17.618A24.836 24.836 0 0 1 62.5 46.084a24.833 24.833 0 0 1 17.618 7.298A24.834 24.834 0 0 1 87.416 71a24.836 24.836 0 0 1-7.298 17.618 24.829 24.829 0 0 1-7.92 5.34zm33.886.87l-20.12-11.616-.386.667A26.303 26.303 0 0 0 88.926 71c0-4.675-1.216-9.066-3.346-12.876l.36.622 20.116-11.614c3.111 4.282 9.019 5.61 13.705 2.904 5.01-2.893 6.727-9.299 3.834-14.31-2.893-5.01-9.3-6.726-14.31-3.833-4.671 2.697-6.479 8.45-4.356 13.277L84.808 56.787l.4.691C80.594 49.75 72.152 44.574 62.5 44.574c-9.655 0-18.099 5.178-22.71 12.908l.378-.654-20.116-11.614c2.153-4.836.348-10.616-4.338-13.321C10.704 29 4.298 30.717 1.405 35.727-1.487 40.737.23 47.144 5.24 50.037c4.672 2.696 10.558 1.385 13.677-2.867l20.12 11.617.386-.666A26.302 26.302 0 0 0 36.074 71c0 4.677 1.217 9.07 3.349 12.88l-.362-.627-20.117 11.614c-3.111-4.282-9.019-5.61-13.705-2.904-5.01 2.893-6.726 9.3-3.834 14.31 2.893 5.01 9.299 6.726 14.31 3.833 4.671-2.697 6.478-8.45 4.356-13.277l20.12-11.617-.403-.699c4.61 7.732 13.056 12.912 22.712 12.912 9.655 0 18.1-5.179 22.71-12.91l-.378.656 20.116 11.614c-2.153 4.836-.348 10.616 4.338 13.321 5.01 2.893 11.416 1.176 14.309-3.834 2.893-5.01 1.176-11.416-3.834-14.309-4.672-2.697-10.558-1.386-13.677 2.866zm-44.691 25.826c-5.265.553-9.368 5.005-9.368 10.416 0 5.785 4.69 10.475 10.475 10.475 5.785 0 10.475-4.69 10.475-10.475 0-5.394-4.079-9.836-9.32-10.411V97.426h-2.262v23.229zm2.215-99.31c5.264-.553 9.367-5.005 9.367-10.416C72.975 5.144 68.285.454 62.5.454c-5.785 0-10.475 4.69-10.475 10.475 0 5.394 4.078 9.836 9.32 10.41v23.235h2.263V21.346z"/>
        <use fill="#F05323" xlink:href="#a"/>
        <use fill="#000" filter="url(#b)" xlink:href="#a"/>
        <g>
            <use fill="#F05323" xlink:href="#c"/>
            <use fill="#000" filter="url(#d)" xlink:href="#c"/>
        </g>
    </g>
</svg>
